PathFileType	3	(X/Y/Z)	D:\minhoCalibration\240510\subject2_KPNP\preferred\preferred16.trc
DataRate	CameraRate	NumFrames	NumMarkers	Units	OrigDataRate	OrigDataStartFrame	OrigNumFrames
200.0	200.0	36	10	mm	200.0	982	215	
Frame#	Time	Left_Ankle_Outer1			Left_Ankle_Inner1			Left_Knee_Outer1			Left_Knee_Inner1			Left_Wrist1			Right_Wrist1			Right_Knee_Inner1			Right_Knee_Outer1			Right_Ankle_Inner1			Right_Ankle_Outer1			
		X1	Y1	Z1	X2	Y2	Z2	X3	Y3	Z3	X4	Y4	Z4	X5	Y5	Z5	X6	Y6	Z6	X7	Y7	Z7	X8	Y8	Z8	X9	Y9	Z9	X10	Y10	Z10	
982	4.9	-710.94312	109.41024	-700.75037	-708.99579	112.606	-645.047	-549.69983	522.85486	-745.67938	-571.92773	508.84848	-651.40405	-595.6413	963.74316	-829.758	-682.80884	1154.0223	-551.7486	-460.32059	868.77551	-226.91719	-506.90384	943.94708	-200.94159	-512.7995	612.25079	90.17318	-557.76904	682.79498	144.40939
983	4.905	-711.49805	108.55648	-699.8667	-709.97668	111.54371	-643.87463	-550.53204	521.89008	-745.52661	-573.16937	508.04831	-651.27374	-595.32312	963.46021	-830.35645	-683.94446	1152.3578	-552.06891	-463.51358	859.74493	-229.19559	-510.1037	934.80988	-201.88826	-521.32141	597.5639	82.30011	-566.50757	667.23273	137.22369
984	4.91	-712.28351	107.76704	-699.15234	-710.26709	110.71101	-643.29749	-551.59363	520.90393	-745.61554	-573.93665	507.24304	-651.35162	-594.94238	963.20258	-830.92682	-685.20001	1150.6788	-552.32379	-466.7598	850.60925	-231.73264	-513.06012	925.65515	-203.42421	-529.89508	582.80139	74.055595	-575.41211	651.71442	129.79492
985	4.915	-712.89288	106.90327	-698.3299	-710.7359	109.694	-642.59113	-552.01202	520.54291	-746.16107	-574.84473	506.52789	-651.57074	-594.62054	962.91382	-831.39288	-686.53113	1148.8457	-552.49872	-470.22211	841.45441	-234.3231	-516.31	916.36493	-205.02469	-538.23859	568.15955	65.398628	-584.33472	636.07434	122.04715
986	4.92	-713.54828	105.91671	-697.48633	-711.54578	108.92544	-641.33423	-553.77466	519.21027	-746.25232	-575.56	505.83481	-651.87335	-594.10083	962.68536	-831.98688	-687.99286	1146.8636	-552.66351	-473.72714	832.30927	-237.11864	-519.73853	907.01935	-206.69325	-546.6391	553.35077	56.393845	-593.31274	620.36884	113.73444
987	4.925	-714.16504	105.06938	-696.83221	-711.3913	108.21902	-640.65479	-555.08466	518.43164	-746.67297	-576.26221	505.14014	-652.37415	-593.57349	962.47925	-832.49542	-689.66254	1144.7681	-552.75513	-477.37009	823.23822	-240.06343	-523.43274	897.61902	-208.50511	-554.89447	538.62323	46.873894	-602.48798	604.53186	105.16715
988	4.93	-714.79926	104.05362	-696.2309	-711.65985	107.33875	-640.11932	-556.05121	518.14056	-747.36285	-576.90814	504.46368	-652.99164	-593.11755	962.42773	-832.97791	-691.32935	1142.423	-552.83759	-481.17633	814.2926	-243.18024	-527.42896	888.19434	-210.3456	-562.98883	523.90002	36.98674	-611.46167	588.50995	95.723778
989	4.935	-715.39581	102.96854	-695.66754	-712.65271	106.77218	-638.35535	-557.35931	517.38184	-748.32733	-577.56506	503.74533	-653.72089	-592.64081	962.25586	-833.44299	-693.24194	1140.026	-552.80518	-485.19714	805.37201	-246.3495	-531.57343	878.69537	-212.41556	-570.87512	509.1846	26.490654	-620.48499	572.48114	85.923248
990	4.94	-715.95703	101.97965	-695.35999	-712.60498	105.4448	-638.99512	-559.33362	516.46661	-748.91034	-578.28876	502.98441	-654.55072	-592.14417	962.09412	-833.89984	-695.05652	1137.5642	-552.83649	-489.22083	796.58948	-249.60295	-536.02374	869.28931	-214.50035	-578.68677	494.62521	15.571177	-629.87134	556.39905	75.712814
991	4.945	-716.47662	100.80798	-695.07306	-713.31305	104.51321	-638.09009	-561.09589	515.68817	-749.74652	-579.09473	502.19678	-655.34845	-591.53357	961.87476	-834.62097	-696.89484	1135.1262	-552.79462	-493.38126	787.93652	-252.91243	-540.69226	859.95117	-216.67094	-586.54718	480.31296	4.3514872	-639.31268	540.58307	65.119644
992	4.95	-717.01868	99.758392	-694.93152	-713.5177	103.29138	-638.49194	-563.13739	514.74591	-750.53912	-580.06744	501.3486	-656.22772	-590.81299	962.0174	-834.89417	-698.37805	1131.8153	-552.27563	-497.49582	779.3692	-256.24005	-545.55804	850.56116	-218.94577	-594.30731	466.06042	-7.3013225	-648.15015	524.59625	53.432636
993	4.955	-717.61139	98.558784	-694.80005	-713.92511	102.26398	-638.63086	-564.94275	513.94354	-751.79773	-581.16382	500.50723	-657.07928	-590.27747	961.90619	-835.5191	-700.98273	1129.6998	-552.91455	-501.81812	770.84857	-259.49771	-550.65417	841.21222	-221.19679	-601.836	452.06638	-19.565226	-657.07764	509.00894	41.521877
994	4.96	-718.16931	97.526314	-694.88397	-714.99585	101.44955	-637.55078	-567.95111	512.46948	-752.19244	-582.43213	499.56464	-657.94086	-589.60364	961.88971	-836.03839	-702.95618	1127.0931	-552.85193	-505.91879	762.56342	-262.8111	-555.92017	831.91364	-223.6478	-609.30145	438.18283	-32.009571	-665.4624	492.923	27.437983
995	4.965	-718.66724	96.419708	-694.95972	-714.94342	99.943283	-638.74597	-569.89746	511.85788	-753.15881	-583.91577	498.70508	-658.62378	-588.93384	961.85138	-836.62732	-704.79205	1124.5632	-552.80054	-509.99219	754.56567	-266.22452	-561.38782	822.65033	-226.12473	-616.64276	424.44464	-44.907581	-675.16797	478.17654	16.176126
996	4.97	-719.17828	95.284966	-695.11383	-715.51062	99.026756	-638.57806	-572.12451	510.90497	-754.14526	-585.52502	497.79404	-659.33368	-588.34857	961.90692	-837.15796	-706.55536	1121.9773	-552.78247	-514.56262	746.5144	-269.29871	-567.11768	813.43958	-228.70277	-623.73511	410.94241	-58.094349	-683.9953	463.05249	2.8466141
997	4.975	-719.64862	94.258049	-695.33636	-716.55402	97.783165	-638.97791	-574.86133	509.7822	-754.40973	-587.30035	497.00925	-659.88794	-587.73663	961.98358	-837.72424	-708.24237	1119.3522	-552.75769	-519.0083	738.62354	-272.6282	-572.95062	804.17712	-231.5011	-628.64465	398.23688	-73.629196	-692.63696	449.1214	-8.826643
998	4.98	-720.02527	93.234772	-695.41803	-716.54315	97.372749	-638.9502	-576.6618	509.30966	-755.30951	-589.33203	496.3934	-660.35443	-587.05835	962.10455	-838.22272	-709.81683	1116.7017	-552.81903	-523.67773	730.724	-275.92844	-578.97693	794.92889	-234.47345	-637.487	384.97931	-85.486259	-701.06543	433.79309	-24.944189
999	4.985	-720.44312	92.046288	-695.55273	-717.89612	96.780518	-637.76941	-578.82758	508.79456	-755.62653	-591.56665	495.92227	-660.71808	-586.46484	962.21173	-838.58826	-711.32617	1114.0465	-552.86517	-528.24176	722.90851	-279.57611	-584.84491	785.66876	-238.05789	-642.23352	373.08197	-101.26859	-710.42883	419.75208	-38.267563
1000	4.99	-720.94086	91.007904	-695.66327	-716.90961	94.196846	-640.20441	-581.16541	508.22006	-755.77686	-593.88556	495.58649	-660.94464	-585.8219	962.29053	-838.9295	-712.63983	1111.4679	-552.70984	-533.33704	715.02087	-283.02994	-590.91504	776.55457	-241.66122	-649.13916	360.62009	-115.47593	-719.21399	405.68616	-52.984711
1001	4.995	-721.45654	90.025146	-695.82117	-717.81335	94.362686	-638.81097	-583.36676	507.63965	-755.83563	-596.39447	495.24887	-661.14203	-585.16913	962.39233	-839.14484	-714.12836	1108.7418	-553.02911	-538.44519	707.28662	-286.97021	-597.40271	767.32227	-245.14676	-658.04303	347.98642	-128.21346	-726.22498	389.63525	-72.772484
1002	5	-722.03345	88.960449	-695.8175	-719.06915	93.493042	-638.336	-585.04712	507.69611	-755.94928	-599.00751	495.02701	-661.10077	-584.34998	962.53027	-839.3847	-715.51892	1106.1226	-553.15601	-543.70752	699.5799	-291.05008	-603.90564	758.20099	-248.95407	-664.76062	336.24173	-142.94308	-736.20483	378.46432	-83.675446
1003	5.005	-722.64777	88.065681	-695.8158	-719.17133	91.794197	-639.53882	-586.85699	507.39944	-755.77698	-601.99469	494.73059	-661.06146	-583.55255	962.638	-839.52478	-716.92084	1103.4865	-553.31165	-549.13989	691.85657	-295.45358	-610.44263	749.07178	-252.95752	-668.93109	325.17245	-160.4193	-744.72058	365.21976	-99.634987
1004	5.01	-723.15326	87.22506	-695.57629	-719.59076	91.129341	-639.20929	-588.30261	507.09753	-755.90027	-605.03058	494.45847	-660.81653	-582.59894	962.81311	-839.64722	-718.43341	1101.0234	-553.46869	-554.64398	684.17169	-300.06104	-617.09369	739.98035	-257.29227	-678.06024	313.6933	-173.24536	-752.14215	351.53253	-118.05408
1005	5.015	-723.84802	86.433144	-695.28143	-720.75049	89.917923	-638.57172	-589.90369	506.66235	-755.46069	-607.34265	494.09198	-660.43066	-581.62415	962.91852	-839.67389	-719.96301	1098.6293	-553.68066	-560.26532	676.54138	-304.8699	-623.97754	730.57062	-262.34219	-684.84119	302.83878	-188.65691	-760.17853	339.62558	-134.24687
1006	5.02	-724.383	85.908859	-694.92932	-721.39966	88.873672	-638.88544	-591.16785	506.35349	-755.01251	-609.96838	493.77783	-659.92914	-580.09375	963.36322	-839.65369	-721.5705	1096.2864	-553.91949	-566.00183	669.06171	-309.66833	-630.87323	721.62878	-267.21677	-691.56836	292.53043	-204.34647	-768.18372	327.69397	-151.30545
1007	5.025	-724.77612	85.412292	-694.50372	-721.33997	88.074593	-638.64612	-592.19214	505.93454	-754.58044	-612.45685	493.47772	-659.492	-579.33447	963.07788	-839.45056	-723.50519	1094.0016	-554.24115	-571.58978	661.65845	-314.65512	-637.83954	712.92511	-272.21652	-698.4939	282.41522	-220.1562	-777.22266	316.35291	-167.30643
1008	5.03	-724.82678	84.903381	-693.89056	-721.85339	87.998466	-637.62756	-593.24298	505.517	-753.75745	-614.73065	493.2749	-659.05786	-578.05573	963.18964	-839.13092	-725.42957	1091.6659	-554.62225	-577.33887	654.37354	-319.75464	-644.7207	703.94769	-278.10226	-705.35889	272.71512	-236.17529	-784.99176	306.04117	-183.55841
1009	5.035	-724.97327	84.565926	-693.49274	-722.03003	88.854187	-635.68542	-594.23749	504.77701	-753.12164	-616.89075	493.0954	-658.56958	-576.62134	963.36682	-838.82916	-727.27734	1089.2681	-554.88153	-583.21021	647.13647	-324.86841	-651.8194	695.58136	-283.72531	-712.31421	263.41632	-252.4218	-792.50061	295.50833	-201.14417
1010	5.04	-725.31726	84.484734	-693.34222	-721.20935	88.162636	-636.82446	-594.42413	504.95309	-752.71069	-618.81799	493.02545	-658.18982	-575.19397	963.54431	-838.33838	-729.72839	1086.895	-555.17572	-589.13776	640.01648	-330.16931	-658.97339	687.41748	-289.59045	-719.40961	254.3945	-268.73477	-800.30249	285.23981	-218.91389
1011	5.045	-725.40869	84.336082	-693.22522	-721.22156	88.138092	-636.63745	-594.74371	504.95285	-752.19183	-620.50391	493.08206	-657.97913	-573.67688	963.73737	-837.75873	-731.87262	1084.5476	-555.44293	-595.08575	633.0332	-335.58215	-666.07831	679.44922	-295.5726	-726.09296	246.0088	-285.38181	-807.89978	275.77509	-236.37433
1012	5.05	-725.49615	84.279694	-693.27869	-721.95276	88.267273	-637.15991	-595.36676	504.92328	-751.53418	-621.98206	493.30362	-657.83014	-572.00995	963.98627	-837.25562	-734.06598	1082.1633	-555.68579	-601.37756	626.19122	-341.16025	-673.19659	671.75104	-301.7283	-733.00739	237.84462	-301.98264	-815.58899	267.17291	-252.6389
1013	5.055	-725.5354	84.317497	-693.46216	-721.68359	88.19368	-637.10211	-596.17078	505.16754	-750.7287	-623.09851	493.68338	-657.81952	-570.45789	964.51788	-836.26965	-736.39868	1079.7	-555.9082	-607.70557	619.35992	-346.85352	-680.27484	664.26605	-307.89685	-739.55688	230.27904	-318.93802	-822.90961	257.77225	-271.63797
1014	5.06	-725.42365	84.350517	-693.59186	-722.40033	88.822304	-636.18579	-596.64569	505.6485	-750.32269	-624.34216	493.89368	-657.76013	-568.81647	965.09595	-835.33606	-738.73914	1077.2087	-556.16901	-614.20483	612.67566	-352.83728	-687.33508	657.03827	-314.18253	-745.97412	223.08966	-335.93478	-831.1214	250.54196	-287.62994
1015	5.065	-725.43201	84.359009	-693.91705	-722.99103	89.104523	-636.49524	-596.80457	506.48999	-750.12732	-625.68079	494.1904	-657.76599	-567.04102	965.75946	-834.15649	-741.15564	1074.5233	-556.56812	-621.117	606.10156	-358.70752	-694.3855	650.05872	-320.51456	-750.52454	216.90367	-354.1684	-837.49744	241.4427	-308.17719
1016	5.07	-725.44989	84.346924	-694.29291	-723.08063	87.858376	-638.47498	-597.80505	506.57941	-749.56982	-627.14874	494.56656	-657.78894	-565.35175	966.56232	-832.36438	-744.19763	1072.0278	-556.94824	-628.47333	599.39844	-364.59573	-701.44922	643.35547	-327.14316	-757.96234	210.1917	-370.36884	-845.20129	234.70361	-324.94769
1017	5.075	-725.41327	84.282272	-694.63959	-722.08789	88.38546	-639.3028	-598.34613	506.89642	-749.17297	-628.30334	494.79645	-657.80096	-563.45959	967.17279	-831.93079	-746.74927	1068.9578	-557.91901	-634.48871	593.49695	-370.96918	-708.48999	636.85364	-333.74927	-763.71027	204.41074	-387.61627	-850.88953	227.16888	-345.86307
